<?xml version="1.0" encoding="utf-8"?>
<!-- Generator: Adobe Illustrator 19.2.1, SVG Export Plug-In . SVG Version: 6.00 Build 0)  -->
<svg version="1.1" xmlns="http://www.w3.org/2000/svg" xmlns:xlink="http://www.w3.org/1999/xlink" x="0px" y="0px" width="1400px"
	 height="980px" viewBox="0 0 1400 980" enable-background="new 0 0 1400 980" xml:space="preserve">
<g id="Layer_2">
	<rect fill="#FFFFFF" width="1400" height="980"/>
</g>
<g id="Layer_1">
	<g>
		<path fill="#FFDB5A" d="M412.2,468.4h17v0c4.4-4,4.4-10.9,0-15v0h-17V468.4z"/>
		<path fill="#8E2E63" d="M429.2,470.3h-17c-1.1,0-1.9-0.9-1.9-1.9v-15c0-1.1,0.9-1.9,1.9-1.9h17c0.5,0,1,0.2,1.3,0.5
			c2.5,2.3,3.9,5.5,3.9,8.9s-1.4,6.6-3.9,8.9C430.1,470.1,429.7,470.3,429.2,470.3z M414.1,466.5h14.3c1.4-1.5,2.1-3.5,2.1-5.5
			s-0.8-4-2.1-5.5h-14.3V466.5z"/>
		<path fill="#97DAF8" d="M309.2,461.3v52.1h48.5v-65.9H323C315.4,447.5,309.2,453.7,309.2,461.3z"/>
		<path fill="#8E2E63" d="M357.7,515.3h-48.5c-1.1,0-1.9-0.9-1.9-1.9v-52.1c0-8.7,7.1-15.8,15.8-15.8h34.7c1.1,0,1.9,0.9,1.9,1.9
			v65.9C359.6,514.4,358.7,515.3,357.7,515.3z M311.1,511.4h44.7v-62.1H323c-6.6,0-11.9,5.3-11.9,11.9V511.4z"/>
		<path fill="#FFDB5A" d="M294,468.4h63.7v-15H294v0C289,457.2,289,464.6,294,468.4L294,468.4z"/>
		<path fill="#8E2E63" d="M357.7,470.3H294c-0.4,0-0.8-0.1-1.2-0.4c-2.8-2.2-4.5-5.4-4.5-9c0-3.6,1.6-6.9,4.5-9
			c0.3-0.3,0.7-0.4,1.2-0.4h63.7c1.1,0,1.9,0.9,1.9,1.9v15C359.6,469.4,358.7,470.3,357.7,470.3z M294.6,466.5h61.1v-11.1h-61.1
			c-1.6,1.4-2.5,3.4-2.5,5.5C292.2,463.1,293.1,465,294.6,466.5z"/>
		<path fill="#97DAF8" d="M412.2,554.3h-75.9v-81.7c0-9.8-5-19-13.3-24.2l-1.6-1h79.6c6.2,0,11.3,5.1,11.3,11.3V554.3z"/>
		<path fill="#8E2E63" d="M412.2,556.3h-75.9c-1.1,0-1.9-0.9-1.9-1.9v-81.7c0-9.2-4.7-17.6-12.4-22.6l-1.6-1
			c-0.7-0.5-1.1-1.3-0.8-2.2c0.2-0.8,1-1.4,1.9-1.4h79.6c7.3,0,13.2,5.9,13.2,13.2v95.6C414.1,555.4,413.2,556.3,412.2,556.3z
			 M338.2,552.4h72.1v-93.7c0-5.2-4.2-9.4-9.4-9.4h-73.5c6.8,5.8,10.8,14.2,10.8,23.3V552.4z"/>
		<path fill="#8E2E63" d="M371.5,541.2h-23.6c-1.1,0-1.9-0.9-1.9-1.9c0-1.1,0.9-1.9,1.9-1.9h23.6c1.1,0,1.9,0.9,1.9,1.9
			C373.4,540.3,372.5,541.2,371.5,541.2z"/>
		<path fill="#8E2E63" d="M412.2,541.2h-30.1c-1.1,0-1.9-0.9-1.9-1.9c0-1.1,0.9-1.9,1.9-1.9h30.1c1.1,0,1.9,0.9,1.9,1.9
			C414.1,540.3,413.2,541.2,412.2,541.2z"/>
	</g>
	<g>
		<path fill="#FFDB5A" d="M749.3,276.3L749.3,276.3c-24,6.8-49.4,6.8-73.5,0l0,0v-82.4h73.5V276.3z"/>
		<path fill="#8E2E63" d="M712.6,283.5c-12.5,0-25.1-1.7-37.3-5.2c-0.9-0.3-1.5-1.1-1.5-2l0-82.4c0-0.6,0.2-1.1,0.6-1.5
			c0.4-0.4,0.9-0.6,1.5-0.6h73.5c1.2,0,2.1,0.9,2.1,2.1v82.4c0,0.9-0.6,1.8-1.5,2C737.7,281.7,725.2,283.5,712.6,283.5z M678,274.7
			c22.7,6.2,46.6,6.2,69.3,0V196H678V274.7z M749.3,276.3L749.3,276.3L749.3,276.3z"/>
		<rect x="668.2" y="180.8" fill="#F69579" width="88.8" height="13.1"/>
		<path fill="#8E2E63" d="M757,196h-88.8c-1.2,0-2.1-0.9-2.1-2.1v-13.1c0-1.2,0.9-2.1,2.1-2.1H757c1.2,0,2.1,0.9,2.1,2.1v13.1
			C759.1,195,758.2,196,757,196z M670.3,191.8h84.7v-8.9h-84.7V191.8z"/>
		<path fill="#F498C0" d="M767.9,102.4l-34.1,78.4h10.4l32.4-74.5c1.4-3.2-0.9-6.7-4.4-6.7h0C770.4,99.6,768.7,100.7,767.9,102.4z"
			/>
		<path fill="#8E2E63" d="M744.3,182.9h-10.4c-0.7,0-1.4-0.4-1.7-0.9s-0.4-1.3-0.2-2l34.1-78.4c1.1-2.5,3.6-4.1,6.3-4.1
			c2.3,0,4.5,1.2,5.7,3.1c1.3,1.9,1.5,4.4,0.6,6.5l-32.4,74.5C745.9,182.4,745.1,182.9,744.3,182.9z M737.1,178.7h5.9l31.8-73.3
			c0.4-0.8,0.3-1.8-0.2-2.6c-0.5-0.8-1.3-1.2-2.3-1.2c-1.1,0-2,0.6-2.5,1.6c0,0,0,0,0,0L737.1,178.7z M767.9,102.4L767.9,102.4
			L767.9,102.4z"/>
		<path fill="#97DAF8" d="M700.5,216.1h-16.3v-38.7h9.5c3.8,0,6.8,3.1,6.8,6.8V216.1z"/>
		<path fill="#8E2E63" d="M700.5,218.2h-16.3c-1.2,0-2.1-0.9-2.1-2.1v-38.7c0-1.2,0.9-2.1,2.1-2.1h9.5c4.9,0,8.9,4,8.9,8.9v31.9
			C702.6,217.2,701.6,218.2,700.5,218.2z M686.2,214h12.1v-29.8c0-2.6-2.1-4.7-4.7-4.7h-7.4V214z"/>
	</g>
	<g>
		<path fill="#F498C0" d="M1086.8,274l-4.5,1.1c-22.7,5.7-46.5,5.7-69.2,0l-4.5-1.1l-2.9-99.2h84.4L1086.8,274z"/>
		<path fill="#8E2E63" d="M1047.7,281.6c-11.8,0-23.7-1.4-35.2-4.3l-4.5-1.1c-1-0.2-1.7-1.1-1.7-2.1l-2.9-99.2
			c0-0.6,0.2-1.2,0.6-1.7c0.4-0.4,1-0.7,1.6-0.7h84.4c0.6,0,1.2,0.3,1.6,0.7c0.4,0.4,0.7,1,0.6,1.7l-3.3,99.2c0,1-0.7,1.9-1.7,2.1
			l-4.5,1.1C1071.4,280.2,1059.6,281.6,1047.7,281.6z M1010.9,272.2l2.8,0.7c22.3,5.6,45.8,5.6,68.1,0l2.8-0.7l3.2-95.2h-79.7
			L1010.9,272.2z M1086.8,274L1086.8,274L1086.8,274z"/>
		<path fill="#FFDB5A" d="M1092.1,164.7h-88.4c-2.1,0-3.8,1.7-3.8,3.8v6.3h95.9v-6.3C1095.9,166.4,1094.2,164.7,1092.1,164.7z"/>
		<path fill="#8E2E63" d="M1095.9,177H1000c-1.3,0-2.3-1-2.3-2.3v-6.3c0-3.3,2.7-6.1,6.1-6.1h88.4c3.3,0,6.1,2.7,6.1,6.1v6.3
			C1098.2,176,1097.2,177,1095.9,177z M1002.3,172.5h91.4v-4c0-0.8-0.7-1.5-1.5-1.5h-88.4c-0.8,0-1.5,0.7-1.5,1.5V172.5z"/>
		<path fill="#8E2E63" d="M1061.1,167c-1.3,0-2.3-1-2.3-2.3v-9h-21.6v9c0,1.3-1,2.3-2.3,2.3c-1.3,0-2.3-1-2.3-2.3v-10.5
			c0-1.7,1.4-3.1,3.1-3.1h24.5c1.7,0,3.1,1.4,3.1,3.1v10.5C1063.3,165.9,1062.3,167,1061.1,167z"/>
		<g>
			<path fill="#8E2E63" d="M1021.4,266.8c-1.2,0-2.2-1-2.3-2.2l-2.5-80.2c0-1.3,0.9-2.3,2.2-2.3c1.2,0,2.3,0.9,2.3,2.2l2.5,80.2
				C1023.7,265.7,1022.7,266.7,1021.4,266.8C1021.5,266.8,1021.4,266.8,1021.4,266.8z"/>
			<path fill="#8E2E63" d="M1074.5,269.4C1074.5,269.4,1074.5,269.4,1074.5,269.4c-1.3,0-2.3-1.1-2.3-2.3l2.5-80.2
				c0-1.3,1.1-2.2,2.3-2.2c1.3,0,2.2,1.1,2.2,2.3l-2.5,80.2C1076.7,268.5,1075.7,269.4,1074.5,269.4z"/>
		</g>
		<path fill="#8E2E63" d="M1048,269.4c-1.3,0-2.3-1-2.3-2.3v-82.9c0-1.3,1-2.3,2.3-2.3c1.3,0,2.3,1,2.3,2.3v82.9
			C1050.2,268.4,1049.2,269.4,1048,269.4z"/>
	</g>
	<g>
		<path fill="#97DAF8" d="M1069.1,498.7h-39.6c-5.6,0-10.1,4.5-10.1,10.1v62.9h43.1c0.9-6.4,2-14.8,2-14.8l5.2,14.8h9.7v-62.9
			C1079.2,503.3,1074.7,498.7,1069.1,498.7z"/>
		<path fill="#8E2E63" d="M1079.2,573.7h-9.7c-0.8,0-1.5-0.5-1.8-1.3l-2.5-7.2c-0.3,2.2-0.6,4.6-0.9,6.8c-0.1,1-0.9,1.7-1.9,1.7
			h-43.1c-1.1,0-1.9-0.9-1.9-1.9v-62.9c0-6.7,5.4-12.1,12.1-12.1h39.6c6.7,0,12.1,5.4,12.1,12.1v62.9
			C1081.1,572.8,1080.3,573.7,1079.2,573.7z M1070.9,569.8h6.4v-61c0-4.5-3.7-8.2-8.2-8.2h-39.6c-4.5,0-8.2,3.7-8.2,8.2v61h39.4
			c0.8-6.1,1.7-13.1,1.7-13.1c0.1-0.9,0.8-1.6,1.7-1.7c0.9-0.1,1.7,0.4,2,1.3L1070.9,569.8z"/>
		<path fill="#FFDB5A" d="M1055,498.7h-11.4v-95c0-3.2,2.6-5.7,5.7-5.7l0,0c3.2,0,5.7,2.6,5.7,5.7V498.7z"/>
		<path fill="#8E2E63" d="M1055,500.6h-11.4c-1.1,0-1.9-0.9-1.9-1.9v-95c0-4.2,3.4-7.6,7.6-7.6c4.2,0,7.6,3.4,7.6,7.6v95
			C1056.9,499.8,1056.1,500.6,1055,500.6z M1045.5,496.8h7.6v-93c0-2.1-1.7-3.8-3.8-3.8c-2.1,0-3.8,1.7-3.8,3.8V496.8z"/>
		<path fill="#FCB856" d="M1079.2,515.9h-59.9v-7.1c0-5.6,4.5-10.1,10.1-10.1h39.6c5.6,0,10.1,4.5,10.1,10.1V515.9z"/>
		<path fill="#8E2E63" d="M1079.2,517.9h-59.9c-1.1,0-1.9-0.9-1.9-1.9v-7.1c0-6.7,5.4-12.1,12.1-12.1h39.6c6.7,0,12.1,5.4,12.1,12.1
			v7.1C1081.1,517,1080.3,517.9,1079.2,517.9z M1021.2,514h56v-5.2c0-4.5-3.7-8.2-8.2-8.2h-39.6c-4.5,0-8.2,3.7-8.2,8.2V514z"/>
		<path fill="#8E2E63" d="M1029.8,573.7c-1.1,0-1.9-0.9-1.9-1.9v-8.8c0-1.1,0.9-1.9,1.9-1.9c1.1,0,1.9,0.9,1.9,1.9v8.8
			C1031.8,572.8,1030.9,573.7,1029.8,573.7z"/>
		<path fill="#8E2E63" d="M1043.7,573.7c-1.1,0-1.9-0.9-1.9-1.9V558c0-1.1,0.9-1.9,1.9-1.9c1.1,0,1.9,0.9,1.9,1.9v13.7
			C1045.6,572.8,1044.8,573.7,1043.7,573.7z"/>
		<path fill="#8E2E63" d="M1042,548.6c-1.1,0-1.9-0.9-1.9-1.9v-6.5c0-1.1,0.9-1.9,1.9-1.9c1.1,0,1.9,0.9,1.9,1.9v6.5
			C1044,547.7,1043.1,548.6,1042,548.6z"/>
		<path fill="#8E2E63" d="M1064.6,528.1c-1.1,0-1.9-0.9-1.9-1.9v-10.2c0-1.1,0.9-1.9,1.9-1.9c1.1,0,1.9,0.9,1.9,1.9v10.2
			C1066.5,527.2,1065.7,528.1,1064.6,528.1z"/>
		<path fill="#8E2E63" d="M1012.1,573.7h-8.4c-1.1,0-1.9-0.9-1.9-1.9s0.9-1.9,1.9-1.9h8.4c1.1,0,1.9,0.9,1.9,1.9
			S1013.2,573.7,1012.1,573.7z"/>
		<path fill="#8E2E63" d="M995,573.7h-20.3c-1.1,0-1.9-0.9-1.9-1.9s0.9-1.9,1.9-1.9H995c1.1,0,1.9,0.9,1.9,1.9S996,573.7,995,573.7z
			"/>
		<path fill="#8E2E63" d="M1106.4,573.7H1086c-1.1,0-1.9-0.9-1.9-1.9s0.9-1.9,1.9-1.9h20.3c1.1,0,1.9,0.9,1.9,1.9
			S1107.4,573.7,1106.4,573.7z"/>
	</g>
	<g>
		<rect x="305.8" y="735.2" fill="#A1A3A6" width="111.2" height="37.8"/>
		<path fill="#8E2E63" d="M416.9,775H305.8c-1.1,0-1.9-0.9-1.9-1.9v-37.8c0-1.1,0.9-1.9,1.9-1.9h111.2c1.1,0,1.9,0.9,1.9,1.9v37.8
			C418.9,774.1,418,775,416.9,775z M307.7,771.1H415v-34H307.7V771.1z"/>
		<path fill="#97DAF8" d="M371.2,785.7h-19.8l-3.1-20.7c-0.3-1.8,0.6-3.5,2.1-4.4l0,0c6.7-4,15-4,21.7,0l0,0
			c1.5,0.9,2.4,2.7,2.1,4.4L371.2,785.7z"/>
		<path fill="#8E2E63" d="M371.2,787.6h-19.8c-1,0-1.8-0.7-1.9-1.6l-3.1-20.7c-0.4-2.6,0.8-5.1,3-6.4c7.3-4.3,16.4-4.3,23.7,0
			c2.2,1.3,3.4,3.8,3,6.4l-3.1,20.7C373,786.9,372.2,787.6,371.2,787.6z M353.1,783.8h16.5l2.8-19.1c0.1-1-0.3-2-1.2-2.5
			c-6.1-3.6-13.6-3.6-19.7,0c-0.9,0.5-1.3,1.5-1.2,2.5L353.1,783.8z"/>
		<path fill="#FFDB5A" d="M361.3,879.2L361.3,879.2c-3.3,0-6-2.7-6-6v-87.5h12.1v87.5C367.4,876.5,364.7,879.2,361.3,879.2z"/>
		<path fill="#8E2E63" d="M361.3,881.2c-4.4,0-8-3.6-8-8v-87.5c0-1.1,0.9-1.9,1.9-1.9h12.1c1.1,0,1.9,0.9,1.9,1.9v87.5
			C369.3,877.6,365.7,881.2,361.3,881.2z M357.2,787.6v85.6c0,2.3,1.8,4.1,4.1,4.1s4.1-1.8,4.1-4.1v-85.6H357.2z"/>
		<path fill="#FCB856" d="M361.3,879.2L361.3,879.2c-3.3,0-6-2.7-6-6v-27.1h12.1v27.1C367.4,876.5,364.7,879.2,361.3,879.2z"/>
		<path fill="#8E2E63" d="M361.3,881.2c-4.4,0-8-3.6-8-8v-27.1c0-1.1,0.9-1.9,1.9-1.9h12.1c1.1,0,1.9,0.9,1.9,1.9v27.1
			C369.3,877.6,365.7,881.2,361.3,881.2z M357.2,848.1v25.1c0,2.3,1.8,4.1,4.1,4.1s4.1-1.8,4.1-4.1v-25.1H357.2z"/>
		<g>
			<path fill="#8E2E63" d="M314.9,729.1c-1.1,0-1.9-0.9-1.9-1.9v-8.9c0-1.1,0.9-1.9,1.9-1.9c1.1,0,1.9,0.9,1.9,1.9v8.9
				C316.8,728.3,316,729.1,314.9,729.1z"/>
			<path fill="#8E2E63" d="M314.9,711.8c-1.1,0-1.9-0.9-1.9-1.9v-25.7c0-1.1,0.9-1.9,1.9-1.9c1.1,0,1.9,0.9,1.9,1.9v25.7
				C316.8,710.9,316,711.8,314.9,711.8z"/>
			<path fill="#8E2E63" d="M338.7,729.1c-1.1,0-1.9-0.9-1.9-1.9v-25.5c0-1.1,0.9-1.9,1.9-1.9c1.1,0,1.9,0.9,1.9,1.9v25.5
				C340.6,728.3,339.8,729.1,338.7,729.1z"/>
			<path fill="#8E2E63" d="M361.7,729.1c-1.1,0-1.9-0.9-1.9-1.9v-41.6c0-1.1,0.9-1.9,1.9-1.9c1.1,0,1.9,0.9,1.9,1.9v41.6
				C363.7,728.3,362.8,729.1,361.7,729.1z"/>
			<path fill="#8E2E63" d="M384.8,729.1c-1.1,0-1.9-0.9-1.9-1.9v-15.1c0-1.1,0.9-1.9,1.9-1.9s1.9,0.9,1.9,1.9v15.1
				C386.7,728.3,385.8,729.1,384.8,729.1z"/>
			<path fill="#8E2E63" d="M407.8,729.1c-1.1,0-1.9-0.9-1.9-1.9v-22.9c0-1.1,0.9-1.9,1.9-1.9c1.1,0,1.9,0.9,1.9,1.9v22.9
				C409.7,728.3,408.9,729.1,407.8,729.1z"/>
			<path fill="#8E2E63" d="M407.8,696.7c-1.1,0-1.9-0.9-1.9-1.9v-5.6c0-1.1,0.9-1.9,1.9-1.9c1.1,0,1.9,0.9,1.9,1.9v5.6
				C409.7,695.8,408.9,696.7,407.8,696.7z"/>
			<path fill="#8E2E63" d="M384.8,707.6c-1.1,0-1.9-0.9-1.9-1.9v-20.1c0-1.1,0.9-1.9,1.9-1.9s1.9,0.9,1.9,1.9v20.1
				C386.7,706.8,385.8,707.6,384.8,707.6z"/>
			<path fill="#8E2E63" d="M338.7,693.9c-1.1,0-1.9-0.9-1.9-1.9v-6.3c0-1.1,0.9-1.9,1.9-1.9c1.1,0,1.9,0.9,1.9,1.9v6.3
				C340.6,693,339.8,693.9,338.7,693.9z"/>
		</g>
	</g>
	<g>
		<path fill="#FCB856" d="M1113.5,799.7H976v-11c0-7.2,5.9-13.1,13.1-13.1h111.2c7.2,0,13.1,5.9,13.1,13.1V799.7z"/>
		<path fill="#8E2E63" d="M1113.5,801.9H976c-1.2,0-2.1-1-2.1-2.1v-11c0-8.4,6.8-15.3,15.3-15.3h111.2c8.4,0,15.3,6.8,15.3,15.3v11
			C1115.6,800.9,1114.6,801.9,1113.5,801.9z M978.1,797.6h133.2v-8.9c0-6.1-4.9-11-11-11H989.1c-6.1,0-11,4.9-11,11V797.6z"/>
		<polygon fill="#FFDB5A" points="1000.2,775.6 1008.7,746.3 1107.5,746.3 1107.5,758.2 1020.2,758.2 1014.1,775.6 		"/>
		<path fill="#8E2E63" d="M1014.1,777.7h-13.9c-0.7,0-1.3-0.3-1.7-0.9c-0.4-0.5-0.5-1.2-0.3-1.9l8.5-29.3c0.3-0.9,1.1-1.5,2.1-1.5
			h98.8c1.2,0,2.1,1,2.1,2.1v11.9c0,1.2-1,2.1-2.1,2.1h-85.7l-5.6,16C1015.8,777.1,1015,777.7,1014.1,777.7z M1003.1,773.5h9.6
			l5.6-16c0.3-0.9,1.1-1.4,2-1.4h85.1v-7.6h-95L1003.1,773.5z"/>
		<rect x="978.3" y="799.7" fill="#97DAF8" width="129.7" height="32.2"/>
		<path fill="#8E2E63" d="M1108,834.1H978.3c-1.2,0-2.1-1-2.1-2.1v-32.2c0-1.2,1-2.1,2.1-2.1H1108c1.2,0,2.1,1,2.1,2.1V832
			C1110.1,833.2,1109.2,834.1,1108,834.1z M980.5,829.8h125.4v-28H980.5V829.8z"/>
		<g>
			<path fill="#8E2E63" d="M993.1,834.1c-1.2,0-2.1-1-2.1-2.1v-16.1c0-1.2,1-2.1,2.1-2.1s2.1,1,2.1,2.1V832
				C995.2,833.2,994.3,834.1,993.1,834.1z"/>
			<path fill="#8E2E63" d="M1013.1,834.1c-1.2,0-2.1-1-2.1-2.1v-16.1c0-1.2,1-2.1,2.1-2.1s2.1,1,2.1,2.1V832
				C1015.2,833.2,1014.3,834.1,1013.1,834.1z"/>
			<path fill="#8E2E63" d="M1033.1,834.1c-1.2,0-2.1-1-2.1-2.1v-16.1c0-1.2,1-2.1,2.1-2.1s2.1,1,2.1,2.1V832
				C1035.3,833.2,1034.3,834.1,1033.1,834.1z"/>
			<path fill="#8E2E63" d="M1053.2,834.1c-1.2,0-2.1-1-2.1-2.1v-16.1c0-1.2,1-2.1,2.1-2.1c1.2,0,2.1,1,2.1,2.1V832
				C1055.3,833.2,1054.4,834.1,1053.2,834.1z"/>
			<path fill="#8E2E63" d="M1073.2,834.1c-1.2,0-2.1-1-2.1-2.1v-16.1c0-1.2,1-2.1,2.1-2.1c1.2,0,2.1,1,2.1,2.1V832
				C1075.3,833.2,1074.4,834.1,1073.2,834.1z"/>
			<path fill="#8E2E63" d="M1093.2,834.1c-1.2,0-2.1-1-2.1-2.1v-16.1c0-1.2,1-2.1,2.1-2.1c1.2,0,2.1,1,2.1,2.1V832
				C1095.4,833.2,1094.4,834.1,1093.2,834.1z"/>
		</g>
		<path fill="#8E2E63" d="M971.5,834.1H962c-1.2,0-2.1-1-2.1-2.1s1-2.1,2.1-2.1h9.5c1.2,0,2.1,1,2.1,2.1S972.7,834.1,971.5,834.1z"
			/>
		<path fill="#8E2E63" d="M1141.5,834.1h-23.9c-1.2,0-2.1-1-2.1-2.1s1-2.1,2.1-2.1h23.9c1.2,0,2.1,1,2.1,2.1
			S1142.6,834.1,1141.5,834.1z"/>
	</g>
	<g>
		<polygon fill="#FECF8D" points="773.9,487.4 733,425.3 656.5,475.6 687.4,522.5 715.2,526.1 		"/>
		<path fill="#8E2E63" d="M715.2,528c-0.1,0-0.2,0-0.2,0l-27.7-3.6c-0.6-0.1-1.1-0.4-1.4-0.9l-30.9-46.8c-0.6-0.9-0.3-2.1,0.5-2.7
			l76.4-50.4c0.9-0.6,2.1-0.3,2.7,0.5l40.9,62.1c0.3,0.4,0.4,0.9,0.3,1.4c-0.1,0.5-0.4,0.9-0.8,1.2l-58.8,38.7
			C715.9,527.9,715.5,528,715.2,528z M688.5,520.7l26.1,3.4l56.6-37.3l-38.8-58.9l-73.2,48.3L688.5,520.7z"/>
		
			<rect x="743.7" y="491.3" transform="matrix(0.4305 -0.9026 0.9026 0.4305 -28.1298 965.1572)" fill="#7ED3F7" width="14" height="27.1"/>
		<path fill="#8E2E63" d="M760,519c-0.3,0-0.6-0.1-0.8-0.2l-24.5-11.7c-1-0.5-1.4-1.6-0.9-2.6l6-12.6c0.2-0.5,0.6-0.8,1.1-1
			c0.5-0.2,1-0.1,1.5,0.1l24.5,11.7c1,0.5,1.4,1.6,0.9,2.6l-6,12.6c-0.2,0.5-0.6,0.8-1.1,1C760.4,518.9,760.2,519,760,519z
			 M738.1,504.4l21,10l4.4-9.2l-21-10L738.1,504.4z"/>
		<path fill="#8E2E63" d="M727.8,531.3c-0.9,0-1.8-0.7-1.9-1.6c-0.2-1.1,0.6-2,1.6-2.2c11.9-1.8,11.3-19.3,11.3-19.5
			c0-1.1,0.8-2,1.8-2c1-0.1,2,0.8,2,1.8c0,0.2,0.2,5.2-1.3,10.6c-2.2,7.4-6.7,11.9-13.2,12.9C728,531.3,727.9,531.3,727.8,531.3z"/>
		<polygon fill="#F498C0" points="766,504.4 775.8,524.6 760,517 		"/>
		<path fill="#8E2E63" d="M775.8,526.5c-0.3,0-0.6-0.1-0.8-0.2l-15.8-7.5c-1-0.5-1.4-1.6-0.9-2.6l6-12.6c0.3-0.7,1-1.1,1.7-1.1
			c0,0,0,0,0,0c0.7,0,1.4,0.4,1.7,1.1l9.8,20.2c0.4,0.7,0.2,1.6-0.4,2.2C776.8,526.3,776.3,526.5,775.8,526.5z M762.5,516.1l9.1,4.3
			l-5.6-11.6L762.5,516.1z"/>
		<path fill="#F173AC" d="M750.8,576.9L750.8,576.9c-9.4,0.7-18.5-3.6-23.8-11.4l0,0l24.7-51.9l23.8,11.4L750.8,576.9z"/>
		<path fill="#8E2E63" d="M748.8,579c-9.3,0-18.1-4.6-23.4-12.3c-0.4-0.6-0.4-1.3-0.2-1.9l24.7-51.9c0.2-0.5,0.6-0.8,1.1-1
			c0.5-0.2,1-0.1,1.5,0.1l23.8,11.4c0.5,0.2,0.8,0.6,1,1.1c0.2,0.5,0.1,1-0.1,1.5l-24.7,51.9c-0.3,0.6-0.9,1-1.6,1.1
			C750.2,578.9,749.5,579,748.8,579z M750.8,576.9L750.8,576.9L750.8,576.9z M729.2,565.4c4.8,6.3,12.4,10,20.3,9.7L773,526
			l-20.3-9.7L729.2,565.4z"/>
		
			<rect x="731.1" y="489.7" transform="matrix(0.4305 -0.9026 0.9026 0.4305 -28.4325 944.5836)" fill="#7ED3F7" width="6.3" height="10.3"/>
		<path fill="#8E2E63" d="M737.6,501.8c-0.3,0-0.6-0.1-0.8-0.2l-9.3-4.4c-1-0.5-1.4-1.6-0.9-2.6l2.7-5.7c0.2-0.5,0.6-0.8,1.1-1
			c0.5-0.2,1-0.1,1.5,0.1l9.3,4.4c1,0.5,1.4,1.6,0.9,2.6l-2.7,5.7c-0.2,0.5-0.6,0.8-1.1,1C738,501.8,737.8,501.8,737.6,501.8z
			 M730.9,494.5l5.8,2.8l1.1-2.2l-5.8-2.8L730.9,494.5z"/>
		<path fill="#8E2E63" d="M721.6,486.1c-0.6,0-1.2-0.3-1.5-0.8l-17.3-22.7c-0.6-0.8-0.5-2.1,0.4-2.7c0.8-0.6,2.1-0.5,2.7,0.4
			l17.3,22.7c0.6,0.8,0.5,2.1-0.4,2.7C722.4,485.9,722,486.1,721.6,486.1z"/>
		<path fill="#8E2E63" d="M693.4,505.4c-0.8,0-1.6-0.5-1.8-1.4c-0.3-1,0.3-2.1,1.3-2.4L721,493c1-0.3,2.1,0.3,2.4,1.3
			c0.3,1-0.3,2.1-1.3,2.4l-28.1,8.6C693.8,505.3,693.6,505.4,693.4,505.4z"/>
		<path fill="#8E2E63" d="M712.9,489c-0.3,0-0.7-0.1-1-0.3l-8.6-5.1c-0.9-0.5-1.2-1.7-0.7-2.6c0.5-0.9,1.7-1.2,2.6-0.7l8.6,5.1
			c0.9,0.5,1.2,1.7,0.7,2.6C714.2,488.7,713.6,489,712.9,489z"/>
		<polygon fill="#F69579" points="687.4,522.5 704.3,510.7 715.2,526.1 		"/>
		<path fill="#8E2E63" d="M715.2,528c-0.1,0-0.2,0-0.2,0l-27.7-3.6c-0.8-0.1-1.4-0.7-1.6-1.5c-0.2-0.8,0.1-1.6,0.8-2l16.9-11.8
			c0.9-0.6,2.1-0.4,2.7,0.5l10.9,15.4c0.4,0.6,0.5,1.5,0.1,2.1C716.4,527.7,715.8,528,715.2,528z M692.6,521.2l18.4,2.4l-7.2-10.2
			L692.6,521.2z"/>
		<path fill="#8E2E63" d="M708,426.7h-11.7c-1.1,0-1.9-0.9-1.9-1.9c0-1.1,0.9-1.9,1.9-1.9H708c1.1,0,1.9,0.9,1.9,1.9
			C710,425.8,709.1,426.7,708,426.7z"/>
		<path fill="#8E2E63" d="M688.3,426.7h-43.7c-1.1,0-1.9-0.9-1.9-1.9c0-1.1,0.9-1.9,1.9-1.9h43.7c1.1,0,1.9,0.9,1.9,1.9
			C690.3,425.8,689.4,426.7,688.3,426.7z"/>
		<path fill="#8E2E63" d="M669.1,443.9h-21.9c-1.1,0-1.9-0.9-1.9-1.9s0.9-1.9,1.9-1.9h21.9c1.1,0,1.9,0.9,1.9,1.9
			S670.2,443.9,669.1,443.9z"/>
		<path fill="#8E2E63" d="M686.7,443.9h-8.3c-1.1,0-1.9-0.9-1.9-1.9s0.9-1.9,1.9-1.9h8.3c1.1,0,1.9,0.9,1.9,1.9
			S687.8,443.9,686.7,443.9z"/>
		<path fill="#8E2E63" d="M656.3,459h-11.6c-1.1,0-1.9-0.9-1.9-1.9s0.9-1.9,1.9-1.9h11.6c1.1,0,1.9,0.9,1.9,1.9S657.3,459,656.3,459
			z"/>
	</g>
	<g>
		<path fill="#FFDB5A" d="M366.2,222.3H353v-91.3c0-3.7,3-6.6,6.6-6.6h0c3.7,0,6.6,3,6.6,6.6V222.3z"/>
		<path fill="#8E2E63" d="M366.2,224.5H353c-1.2,0-2.2-1-2.2-2.2v-91.3c0-4.8,3.9-8.8,8.8-8.8c4.8,0,8.8,3.9,8.8,8.8v91.3
			C368.4,223.5,367.4,224.5,366.2,224.5z M355.2,220.2h8.9v-89.1c0-2.5-2-4.5-4.5-4.5s-4.5,2-4.5,4.5V220.2z"/>
		<path fill="#F498C0" d="M364,234.6h-8.7c-17.6,0-31.9,14.3-31.9,31.9v7.9h72.4v-7.9C395.8,248.9,381.6,234.6,364,234.6z"/>
		<path fill="#8E2E63" d="M395.8,276.5h-72.4c-1.2,0-2.2-1-2.2-2.2v-7.9c0-18.8,15.3-34,34-34h8.7c18.8,0,34,15.3,34,34v7.9
			C398,275.6,397,276.5,395.8,276.5z M325.6,272.2h68.1v-5.7c0-16.4-13.3-29.7-29.7-29.7h-8.7c-16.4,0-29.7,13.3-29.7,29.7V272.2z"
			/>
		<path fill="#F173AC" d="M368.7,222.3h-18.2v14.3v0c5.6,3.9,12.6,3.9,18.2,0v0V222.3z"/>
		<path fill="#8E2E63" d="M359.6,241.6c-3.6,0-7.2-1.1-10.3-3.3c-0.6-0.4-0.9-1.1-0.9-1.8v-14.3c0-1.2,1-2.2,2.2-2.2h18.2
			c1.2,0,2.2,1,2.2,2.2v14.3c0,0.7-0.3,1.4-0.9,1.8C366.8,240.6,363.2,241.6,359.6,241.6z M352.7,235.4c4.4,2.6,9.5,2.6,13.8,0
			v-10.9h-13.8V235.4z"/>
		<path fill="#8E2E63" d="M312.2,276.5H304c-1.2,0-2.2-1-2.2-2.2s1-2.2,2.2-2.2h8.3c1.2,0,2.2,1,2.2,2.2S313.4,276.5,312.2,276.5z"
			/>
		<path fill="#8E2E63" d="M414.6,276.5h-7.9c-1.2,0-2.2-1-2.2-2.2s1-2.2,2.2-2.2h7.9c1.2,0,2.2,1,2.2,2.2S415.8,276.5,414.6,276.5z"
			/>
		<path fill="#8E2E63" d="M446.8,276.5h-23.2c-1.2,0-2.2-1-2.2-2.2s1-2.2,2.2-2.2h23.2c1.2,0,2.2,1,2.2,2.2S448,276.5,446.8,276.5z"
			/>
	</g>
	<g>
		<g>
			<ellipse fill="#7FB8D1" cx="684.5" cy="758.8" rx="13.9" ry="31.3"/>
			<ellipse fill="#97DAF8" cx="684.5" cy="758.8" rx="4.3" ry="9.6"/>
			<path fill="#97DAF8" d="M768.9,728.9c-0.5-0.9-1.5-1.4-2.5-1.4l-81.9,0c7.7,0,13.9,14,13.9,31.3c0,17.3-6.2,31.3-13.9,31.3h83.6
				v0C780.1,771.6,780.4,747.8,768.9,728.9z"/>
		</g>
		<g>
			<path fill="#8E2E63" d="M684.5,792.1c-4.6,0-8.7-3.7-11.7-10.4c-2.7-6.2-4.3-14.3-4.3-22.9s1.5-16.8,4.3-22.9
				c3-6.7,7.1-10.4,11.7-10.4s8.7,3.7,11.7,10.4c2.7,6.2,4.3,14.3,4.3,22.9s-1.5,16.8-4.3,22.9C693.2,788.4,689,792.1,684.5,792.1z
				 M684.5,729.6c-5.6,0-11.9,12-11.9,29.3s6.3,29.3,11.9,29.3s11.9-12,11.9-29.3S690.1,729.6,684.5,729.6z"/>
			<path fill="#8E2E63" d="M684.5,770.5c-4.1,0-6.3-5.9-6.3-11.7s2.2-11.7,6.3-11.7s6.3,5.9,6.3,11.7S688.6,770.5,684.5,770.5z
				 M684.5,751.2c-0.5,0.1-2.3,2.6-2.3,7.6c0,5,1.7,7.5,2.3,7.6c0.5-0.1,2.3-2.6,2.3-7.6C686.7,753.8,685,751.3,684.5,751.2z"/>
			<path fill="#8E2E63" d="M684.5,792.1c-1.1,0-2-0.9-2-2s0.9-2,2-2c5.6,0,11.9-12,11.9-29.3s-6.3-29.3-11.9-29.3l0,0
				c-1.1,0-2-0.9-2-2c0-1.1,0.9-2,2-2l81.9,0c1.7,0,3.4,0.9,4.3,2.4c5.8,9.6,8.8,20.5,8.7,31.8c-0.2,11.2-3.5,22.1-9.6,31.6
				c-0.4,0.6-1,0.9-1.7,0.9L684.5,792.1z M692.3,788.1h74.7c11-17.6,11.1-40.3,0.3-58.1l0,0c-0.2-0.3-0.5-0.4-0.8-0.4l-74.1,0
				c1.4,1.6,2.8,3.8,3.9,6.3c2.7,6.2,4.3,14.3,4.3,22.9s-1.5,16.8-4.3,22.9C695,784.3,693.7,786.4,692.3,788.1z"/>
		</g>
		<path fill="#97DAF8" d="M768.9,728.9c-0.5-0.9-1.5-1.4-2.5-1.4l-81.9,0c7.7,0,13.9,14,13.9,31.3c0,7.6-1.2,14.6-3.2,20
			c-0.7,1.8-1.7,4.7-2.9,8.1c-4.9,13.4-7.4,27.6-7.4,41.8v16.9h83.2V803c0-7.4,1.6-14.6,4.5-21.3C780,764.7,778.7,745,768.9,728.9z"
			/>
		<path fill="#8E2E63" d="M768.1,847.6h-83.2c-1.1,0-2-0.9-2-2v-16.9c0-14.5,2.5-28.9,7.5-42.5c1.3-3.7,2.3-6.4,2.9-8.1
			c2-5.4,3.1-12.2,3.1-19.3c0-17.2-6.3-29.3-11.9-29.3l0,0c-1.1,0-2-0.9-2-2c0-1.1,0.9-2,2-2l81.9,0c1.7,0,3.4,0.9,4.3,2.4l0,0
			c10,16.5,11.5,36.9,3.8,54.6c-2.9,6.7-4.4,13.6-4.4,20.5v42.6C770.1,846.7,769.2,847.6,768.1,847.6z M686.9,843.6H766V803
			c0-7.5,1.6-14.9,4.7-22.1c7.2-16.5,5.8-35.5-3.5-50.8c0,0,0,0,0,0c-0.2-0.3-0.5-0.4-0.8-0.4l-74.1,0c1.4,1.6,2.8,3.8,3.9,6.3
			c2.7,6.2,4.3,14.3,4.3,22.9c0,7.5-1.2,14.9-3.3,20.7c-0.6,1.6-1.6,4.4-2.9,8c-4.8,13.2-7.2,27.1-7.2,41.1V843.6z"/>
		<path fill="#8E2E63" d="M715.6,760.8h-7.1c-1.1,0-2-0.9-2-2s0.9-2,2-2h7.1c1.1,0,2,0.9,2,2S716.7,760.8,715.6,760.8z"/>
		<path fill="#8E2E63" d="M732.7,760.8h-7.1c-1.1,0-2-0.9-2-2s0.9-2,2-2h7.1c1.1,0,2,0.9,2,2S733.8,760.8,732.7,760.8z"/>
		<path fill="#8E2E63" d="M749.8,760.8h-7.1c-1.1,0-2-0.9-2-2s0.9-2,2-2h7.1c1.1,0,2,0.9,2,2S750.9,760.8,749.8,760.8z"/>
		<path fill="#8E2E63" d="M766.9,760.8h-7.1c-1.1,0-2-0.9-2-2s0.9-2,2-2h7.1c1.1,0,2,0.9,2,2S768,760.8,766.9,760.8z"/>
	</g>
</g>
</svg>
